<svg width="1440" height="1000" viewBox="0 0 1440 1000" fill="none" xmlns="http://www.w3.org/2000/svg">
  <defs>
    <radialGradient id="g1" cx="0" cy="0" r="1" gradientUnits="userSpaceOnUse" gradientTransform="translate(180 80) rotate(40) scale(760 520)"><stop stop-color="#31D2FF" stop-opacity="0.28"/><stop offset="1" stop-color="#07111F" stop-opacity="0"/></radialGradient>
    <radialGradient id="g2" cx="0" cy="0" r="1" gradientUnits="userSpaceOnUse" gradientTransform="translate(1100 60) rotate(120) scale(680 480)"><stop stop-color="#9B7CFF" stop-opacity="0.22"/><stop offset="1" stop-color="#07111F" stop-opacity="0"/></radialGradient>
    <linearGradient id="accent" x1="0" y1="0" x2="1" y2="1"><stop stop-color="#31D2FF"/><stop offset="1" stop-color="#9B7CFF"/></linearGradient>
    <filter id="shadow" x="-30%" y="-30%" width="160%" height="160%"><feDropShadow dx="0" dy="34" stdDeviation="38" flood-color="#000" flood-opacity="0.38"/></filter>
  </defs>
  <rect width="1440" height="1000" fill="#07111F"/>
  <rect width="1440" height="1000" fill="url(#g1)"/>
  <rect width="1440" height="1000" fill="url(#g2)"/>
  <g opacity="0.18"><path d="M0 120H1440M0 240H1440M0 360H1440M0 480H1440M0 600H1440M0 720H1440M0 840H1440M120 0V1000M240 0V1000M360 0V1000M480 0V1000M600 0V1000M720 0V1000M840 0V1000M960 0V1000M1080 0V1000M1200 0V1000M1320 0V1000" stroke="white" stroke-width="1"/></g>
  <g transform="translate(86 44)">
    <rect width="42" height="42" rx="14" fill="url(#accent)"/>
    <text x="21" y="28" text-anchor="middle" font-family="Arial, sans-serif" font-size="22" font-weight="800" fill="#06101D">◆</text>
    <text x="58" y="28" font-family="Arial, sans-serif" font-size="24" font-weight="800" fill="#EEF6FF">OmniPay Links</text>
    <text x="1020" y="27" font-family="Arial, sans-serif" font-size="17" font-weight="600" fill="#9FB1C9">Dashboard</text>
    <rect x="1145" y="-2" width="132" height="44" rx="16" fill="#55DFFF"/>
    <text x="1211" y="27" text-anchor="middle" font-family="Arial, sans-serif" font-size="16" font-weight="800" fill="#06101D">Create link</text>
  </g>
  <g transform="translate(86 112)">
    <rect width="465" height="38" rx="19" fill="white" fill-opacity="0.045" stroke="white" stroke-opacity="0.14"/>
    <text x="18" y="25" font-family="Arial, sans-serif" font-size="15" fill="#C8D9ED">Web fallback active · STON.fi Omniston v1beta8 adapter</text>
  </g>
  <g transform="translate(86 215)">
    <text font-family="Arial, sans-serif" font-size="15" font-weight="800" letter-spacing="3" fill="#31D2FF">TELEGRAM-NATIVE PAYMENT LINKS FOR TON</text>
    <text x="0" y="92" font-family="Arial, sans-serif" font-size="80" font-weight="900" fill="#EEF6FF">Accept any</text>
    <text x="0" y="176" font-family="Arial, sans-serif" font-size="80" font-weight="900" fill="#EEF6FF">supported token.</text>
    <text x="0" y="260" font-family="Arial, sans-serif" font-size="80" font-weight="900" fill="#EEF6FF">Settle in TON.</text>
    <text x="0" y="332" font-family="Arial, sans-serif" font-size="25" fill="#CAD7E8">OmniPay Links turns STON.fi Omniston routing into a</text>
    <text x="0" y="368" font-family="Arial, sans-serif" font-size="25" fill="#CAD7E8">premium checkout for creators, freelancers, DAOs, and</text>
    <text x="0" y="404" font-family="Arial, sans-serif" font-size="25" fill="#CAD7E8">mini-app merchants.</text>
    <rect x="0" y="455" width="205" height="58" rx="20" fill="#6FEAFF"/>
    <text x="102" y="491" text-anchor="middle" font-family="Arial, sans-serif" font-size="18" font-weight="900" fill="#06101D">Create payment link</text>
    <rect x="222" y="455" width="175" height="58" rx="20" fill="white" fill-opacity="0.08" stroke="white" stroke-opacity="0.14"/>
    <text x="309" y="491" text-anchor="middle" font-family="Arial, sans-serif" font-size="18" font-weight="800" fill="#EAF4FF">Try judge demo</text>
  </g>
  <g transform="translate(905 178)" filter="url(#shadow)">
    <rect width="430" height="660" rx="48" fill="white" fill-opacity="0.09" stroke="white" stroke-opacity="0.2"/>
    <rect x="165" y="28" width="100" height="7" rx="4" fill="white" fill-opacity="0.25"/>
    <rect x="24" y="66" width="382" height="570" rx="30" fill="#0D192B" fill-opacity="0.82" stroke="white" stroke-opacity="0.14"/>
    <rect x="46" y="92" width="206" height="36" rx="18" fill="#36DC9B" fill-opacity="0.13" stroke="#36DC9B" stroke-opacity="0.25"/>
    <text x="62" y="115" font-family="Arial, sans-serif" font-size="14" fill="#9CF6D0">Omniston-powered checkout</text>
    <text x="46" y="184" font-family="Arial, sans-serif" font-size="34" font-weight="900" fill="#EEF6FF">Design sprint</text>
    <text x="46" y="222" font-family="Arial, sans-serif" font-size="34" font-weight="900" fill="#EEF6FF">deposit</text>
    <text x="46" y="270" font-family="Arial, sans-serif" font-size="18" fill="#CAD7E8">Alice Studio requests</text>
    <text x="231" y="270" font-family="Arial, sans-serif" font-size="18" font-weight="900" fill="#FFFFFF">50 USDT</text>
    <text x="46" y="310" font-family="Arial, sans-serif" font-size="18" fill="#CAD7E8">settlement.</text>
    <g font-family="Arial, sans-serif" font-size="18">
      <text x="46" y="370" fill="#9FB1C9">Bob pays</text><text x="344" y="370" text-anchor="end" font-weight="900" fill="#EEF6FF">162.5000 TON</text>
      <text x="46" y="424" fill="#9FB1C9">Alice receives</text><text x="344" y="424" text-anchor="end" font-weight="900" fill="#EEF6FF">50.00 USDT</text>
      <text x="46" y="478" fill="#9FB1C9">Route</text><text x="344" y="478" text-anchor="end" font-weight="900" fill="#EEF6FF">TON → Omniston → USDT</text>
    </g>
    <rect x="46" y="534" width="336" height="58" rx="20" fill="#6FEAFF"/>
    <text x="214" y="570" text-anchor="middle" font-family="Arial, sans-serif" font-size="18" font-weight="900" fill="#06101D">Confirm with TON wallet</text>
  </g>
  <g transform="translate(86 890)">
    <rect width="295" height="84" rx="28" fill="#0D192B" fill-opacity="0.76" stroke="white" stroke-opacity="0.14"/>
    <text x="24" y="36" font-family="Arial, sans-serif" font-size="20" font-weight="900" fill="#EEF6FF">Payment links, not swap forms</text>
    <text x="24" y="61" font-family="Arial, sans-serif" font-size="14" fill="#9FB1C9">Normal Telegram commerce UX.</text>
    <rect x="315" width="295" height="84" rx="28" fill="#0D192B" fill-opacity="0.76" stroke="white" stroke-opacity="0.14"/>
    <text x="339" y="36" font-family="Arial, sans-serif" font-size="20" font-weight="900" fill="#EEF6FF">Merchant chooses settlement</text>
    <text x="339" y="61" font-family="Arial, sans-serif" font-size="14" fill="#9FB1C9">TON or USDT on TON.</text>
    <rect x="630" width="295" height="84" rx="28" fill="#0D192B" fill-opacity="0.76" stroke="white" stroke-opacity="0.14"/>
    <text x="654" y="36" font-family="Arial, sans-serif" font-size="20" font-weight="900" fill="#EEF6FF">Payer chooses token</text>
    <text x="654" y="61" font-family="Arial, sans-serif" font-size="14" fill="#9FB1C9">Pay with what they already hold.</text>
    <rect x="945" width="295" height="84" rx="28" fill="#0D192B" fill-opacity="0.76" stroke="white" stroke-opacity="0.14"/>
    <text x="969" y="36" font-family="Arial, sans-serif" font-size="20" font-weight="900" fill="#EEF6FF">Quote status transparent</text>
    <text x="969" y="61" font-family="Arial, sans-serif" font-size="14" fill="#9FB1C9">Live or demo fallback labeled.</text>
  </g>
</svg>
